<?xml version="1.0" standalone="no"?>
<svg xmlns:xlink="http://www.w3.org/1999/xlink" id="wave" style="transform:rotate(0deg); transition: 0.3s" viewBox="0 0 1440 150" version="1.1" xmlns="http://www.w3.org/2000/svg"><defs><linearGradient id="sw-gradient-0" x1="0" x2="0" y1="1" y2="0"><stop stop-color="rgba(110, 204, 175, 1)" offset="0%"/><stop stop-color="rgba(110, 204, 175, 1)" offset="100%"/></linearGradient></defs><path style="transform:translate(0, 0px); opacity:1" fill="url(#sw-gradient-0)" d="M0,60L40,52.5C80,45,160,30,240,22.5C320,15,400,15,480,32.5C560,50,640,85,720,87.5C800,90,880,60,960,42.5C1040,25,1120,20,1200,15C1280,10,1360,5,1440,10C1520,15,1600,30,1680,40C1760,50,1840,55,1920,60C2000,65,2080,70,2160,82.5C2240,95,2320,115,2400,110C2480,105,2560,75,2640,55C2720,35,2800,25,2880,25C2960,25,3040,35,3120,52.5C3200,70,3280,95,3360,97.5C3440,100,3520,80,3600,70C3680,60,3760,60,3840,70C3920,80,4000,100,4080,90C4160,80,4240,40,4320,32.5C4400,25,4480,50,4560,65C4640,80,4720,85,4800,82.5C4880,80,4960,70,5040,77.5C5120,85,5200,110,5280,115C5360,120,5440,105,5520,92.5C5600,80,5680,70,5720,65L5760,60L5760,150L5720,150C5680,150,5600,150,5520,150C5440,150,5360,150,5280,150C5200,150,5120,150,5040,150C4960,150,4880,150,4800,150C4720,150,4640,150,4560,150C4480,150,4400,150,4320,150C4240,150,4160,150,4080,150C4000,150,3920,150,3840,150C3760,150,3680,150,3600,150C3520,150,3440,150,3360,150C3280,150,3200,150,3120,150C3040,150,2960,150,2880,150C2800,150,2720,150,2640,150C2560,150,2480,150,2400,150C2320,150,2240,150,2160,150C2080,150,2000,150,1920,150C1840,150,1760,150,1680,150C1600,150,1520,150,1440,150C1360,150,1280,150,1200,150C1120,150,1040,150,960,150C880,150,800,150,720,150C640,150,560,150,480,150C400,150,320,150,240,150C160,150,80,150,40,150L0,150Z"/><defs><linearGradient id="sw-gradient-1" x1="0" x2="0" y1="1" y2="0"><stop stop-color="rgba(52, 77, 103, 1)" offset="0%"/><stop stop-color="rgba(52, 77, 103, 1)" offset="100%"/></linearGradient></defs><path style="transform:translate(0, 50px); opacity:0.9" fill="url(#sw-gradient-1)" d="M0,90L40,77.5C80,65,160,40,240,30C320,20,400,25,480,37.5C560,50,640,70,720,65C800,60,880,30,960,15C1040,0,1120,0,1200,2.5C1280,5,1360,10,1440,12.5C1520,15,1600,15,1680,12.5C1760,10,1840,5,1920,15C2000,25,2080,50,2160,65C2240,80,2320,85,2400,80C2480,75,2560,60,2640,60C2720,60,2800,75,2880,67.5C2960,60,3040,30,3120,37.5C3200,45,3280,90,3360,97.5C3440,105,3520,75,3600,72.5C3680,70,3760,95,3840,87.5C3920,80,4000,40,4080,27.5C4160,15,4240,30,4320,42.5C4400,55,4480,65,4560,80C4640,95,4720,115,4800,120C4880,125,4960,115,5040,105C5120,95,5200,85,5280,67.5C5360,50,5440,25,5520,25C5600,25,5680,50,5720,62.5L5760,75L5760,150L5720,150C5680,150,5600,150,5520,150C5440,150,5360,150,5280,150C5200,150,5120,150,5040,150C4960,150,4880,150,4800,150C4720,150,4640,150,4560,150C4480,150,4400,150,4320,150C4240,150,4160,150,4080,150C4000,150,3920,150,3840,150C3760,150,3680,150,3600,150C3520,150,3440,150,3360,150C3280,150,3200,150,3120,150C3040,150,2960,150,2880,150C2800,150,2720,150,2640,150C2560,150,2480,150,2400,150C2320,150,2240,150,2160,150C2080,150,2000,150,1920,150C1840,150,1760,150,1680,150C1600,150,1520,150,1440,150C1360,150,1280,150,1200,150C1120,150,1040,150,960,150C880,150,800,150,720,150C640,150,560,150,480,150C400,150,320,150,240,150C160,150,80,150,40,150L0,150Z"/></svg>